<mxfile host="app.diagrams.net" modified="2023-08-04T14:47:03.568Z" agent="Mozilla/5.0 (Windows NT 10.0; Win64; x64) AppleWebKit/537.36 (KHTML, like Gecko) Chrome/115.0.0.0 Safari/537.36" etag="j-YrE7CQIZipIs9mzwRD" version="21.6.6" type="device">
  <diagram name="Страница 1" id="dOjJabSe6C-60DXZB-S7">
    <mxGraphModel dx="1647" dy="2030" grid="1" gridSize="10" guides="1" tooltips="1" connect="1" arrows="1" fold="1" page="1" pageScale="1" pageWidth="827" pageHeight="1169" math="0" shadow="0">
      <root>
        <mxCell id="0" />
        <mxCell id="1" parent="0" />
        <mxCell id="JXFhsg0_KlggHJK0LN9S-1" value="User" style="swimlane;fontStyle=0;childLayout=stackLayout;horizontal=1;startSize=26;horizontalStack=0;resizeParent=1;resizeParentMax=0;resizeLast=0;collapsible=1;marginBottom=0;align=center;fontSize=14;" parent="1" vertex="1">
          <mxGeometry x="333" y="469" width="160" height="176" as="geometry" />
        </mxCell>
        <mxCell id="JXFhsg0_KlggHJK0LN9S-2" value="username" style="text;strokeColor=none;fillColor=none;spacingLeft=4;spacingRight=4;overflow=hidden;rotatable=0;points=[[0,0.5],[1,0.5]];portConstraint=eastwest;fontSize=12;whiteSpace=wrap;html=1;" parent="JXFhsg0_KlggHJK0LN9S-1" vertex="1">
          <mxGeometry y="26" width="160" height="30" as="geometry" />
        </mxCell>
        <mxCell id="JXFhsg0_KlggHJK0LN9S-3" value="email" style="text;strokeColor=none;fillColor=none;spacingLeft=4;spacingRight=4;overflow=hidden;rotatable=0;points=[[0,0.5],[1,0.5]];portConstraint=eastwest;fontSize=12;whiteSpace=wrap;html=1;" parent="JXFhsg0_KlggHJK0LN9S-1" vertex="1">
          <mxGeometry y="56" width="160" height="30" as="geometry" />
        </mxCell>
        <mxCell id="JXFhsg0_KlggHJK0LN9S-4" value="password" style="text;strokeColor=none;fillColor=none;spacingLeft=4;spacingRight=4;overflow=hidden;rotatable=0;points=[[0,0.5],[1,0.5]];portConstraint=eastwest;fontSize=12;whiteSpace=wrap;html=1;" parent="JXFhsg0_KlggHJK0LN9S-1" vertex="1">
          <mxGeometry y="86" width="160" height="30" as="geometry" />
        </mxCell>
        <mxCell id="JXFhsg0_KlggHJK0LN9S-9" value="balance" style="text;strokeColor=none;fillColor=none;spacingLeft=4;spacingRight=4;overflow=hidden;rotatable=0;points=[[0,0.5],[1,0.5]];portConstraint=eastwest;fontSize=12;whiteSpace=wrap;html=1;" parent="JXFhsg0_KlggHJK0LN9S-1" vertex="1">
          <mxGeometry y="116" width="160" height="30" as="geometry" />
        </mxCell>
        <mxCell id="JXFhsg0_KlggHJK0LN9S-10" value="status" style="text;strokeColor=none;fillColor=none;spacingLeft=4;spacingRight=4;overflow=hidden;rotatable=0;points=[[0,0.5],[1,0.5]];portConstraint=eastwest;fontSize=12;whiteSpace=wrap;html=1;" parent="JXFhsg0_KlggHJK0LN9S-1" vertex="1">
          <mxGeometry y="146" width="160" height="30" as="geometry" />
        </mxCell>
        <mxCell id="JXFhsg0_KlggHJK0LN9S-11" value="Authority" style="swimlane;fontStyle=0;childLayout=stackLayout;horizontal=1;startSize=26;horizontalStack=0;resizeParent=1;resizeParentMax=0;resizeLast=0;collapsible=1;marginBottom=0;align=center;fontSize=14;" parent="1" vertex="1">
          <mxGeometry x="60" y="529" width="160" height="56" as="geometry" />
        </mxCell>
        <mxCell id="JXFhsg0_KlggHJK0LN9S-12" value="value" style="text;strokeColor=none;fillColor=none;spacingLeft=4;spacingRight=4;overflow=hidden;rotatable=0;points=[[0,0.5],[1,0.5]];portConstraint=eastwest;fontSize=12;whiteSpace=wrap;html=1;" parent="JXFhsg0_KlggHJK0LN9S-11" vertex="1">
          <mxGeometry y="26" width="160" height="30" as="geometry" />
        </mxCell>
        <mxCell id="JXFhsg0_KlggHJK0LN9S-15" value="1..*" style="endArrow=open;html=1;endSize=12;startArrow=diamondThin;startSize=14;startFill=1;align=left;verticalAlign=bottom;rounded=0;" parent="1" source="JXFhsg0_KlggHJK0LN9S-1" target="JXFhsg0_KlggHJK0LN9S-11" edge="1">
          <mxGeometry x="0.726" y="-4" relative="1" as="geometry">
            <mxPoint x="150" y="760" as="sourcePoint" />
            <mxPoint x="310" y="760" as="targetPoint" />
            <mxPoint as="offset" />
          </mxGeometry>
        </mxCell>
        <mxCell id="JXFhsg0_KlggHJK0LN9S-16" value="Organization" style="swimlane;fontStyle=0;childLayout=stackLayout;horizontal=1;startSize=26;horizontalStack=0;resizeParent=1;resizeParentMax=0;resizeLast=0;collapsible=1;marginBottom=0;align=center;fontSize=14;" parent="1" vertex="1">
          <mxGeometry x="334" y="90" width="160" height="206" as="geometry" />
        </mxCell>
        <mxCell id="JXFhsg0_KlggHJK0LN9S-17" value="name" style="text;strokeColor=none;fillColor=none;spacingLeft=4;spacingRight=4;overflow=hidden;rotatable=0;points=[[0,0.5],[1,0.5]];portConstraint=eastwest;fontSize=12;whiteSpace=wrap;html=1;" parent="JXFhsg0_KlggHJK0LN9S-16" vertex="1">
          <mxGeometry y="26" width="160" height="30" as="geometry" />
        </mxCell>
        <mxCell id="JXFhsg0_KlggHJK0LN9S-18" value="description" style="text;strokeColor=none;fillColor=none;spacingLeft=4;spacingRight=4;overflow=hidden;rotatable=0;points=[[0,0.5],[1,0.5]];portConstraint=eastwest;fontSize=12;whiteSpace=wrap;html=1;" parent="JXFhsg0_KlggHJK0LN9S-16" vertex="1">
          <mxGeometry y="56" width="160" height="30" as="geometry" />
        </mxCell>
        <mxCell id="JXFhsg0_KlggHJK0LN9S-19" value="logo" style="text;strokeColor=none;fillColor=none;spacingLeft=4;spacingRight=4;overflow=hidden;rotatable=0;points=[[0,0.5],[1,0.5]];portConstraint=eastwest;fontSize=12;whiteSpace=wrap;html=1;" parent="JXFhsg0_KlggHJK0LN9S-16" vertex="1">
          <mxGeometry y="86" width="160" height="30" as="geometry" />
        </mxCell>
        <mxCell id="JXFhsg0_KlggHJK0LN9S-20" value="balance" style="text;strokeColor=none;fillColor=none;spacingLeft=4;spacingRight=4;overflow=hidden;rotatable=0;points=[[0,0.5],[1,0.5]];portConstraint=eastwest;fontSize=12;whiteSpace=wrap;html=1;" parent="JXFhsg0_KlggHJK0LN9S-16" vertex="1">
          <mxGeometry y="116" width="160" height="30" as="geometry" />
        </mxCell>
        <mxCell id="JXFhsg0_KlggHJK0LN9S-22" value="status" style="text;strokeColor=none;fillColor=none;spacingLeft=4;spacingRight=4;overflow=hidden;rotatable=0;points=[[0,0.5],[1,0.5]];portConstraint=eastwest;fontSize=12;whiteSpace=wrap;html=1;" parent="JXFhsg0_KlggHJK0LN9S-16" vertex="1">
          <mxGeometry y="146" width="160" height="30" as="geometry" />
        </mxCell>
        <mxCell id="JXFhsg0_KlggHJK0LN9S-24" value="creationTime" style="text;strokeColor=none;fillColor=none;spacingLeft=4;spacingRight=4;overflow=hidden;rotatable=0;points=[[0,0.5],[1,0.5]];portConstraint=eastwest;fontSize=12;whiteSpace=wrap;html=1;" parent="JXFhsg0_KlggHJK0LN9S-16" vertex="1">
          <mxGeometry y="176" width="160" height="30" as="geometry" />
        </mxCell>
        <mxCell id="JXFhsg0_KlggHJK0LN9S-21" value="0..*" style="endArrow=open;html=1;endSize=12;startArrow=diamondThin;startSize=14;startFill=0;align=left;verticalAlign=bottom;rounded=0;" parent="1" source="JXFhsg0_KlggHJK0LN9S-1" target="JXFhsg0_KlggHJK0LN9S-16" edge="1">
          <mxGeometry x="0.6284" y="-7" relative="1" as="geometry">
            <mxPoint x="520" y="380" as="sourcePoint" />
            <mxPoint x="680" y="380" as="targetPoint" />
            <mxPoint as="offset" />
          </mxGeometry>
        </mxCell>
        <mxCell id="JXFhsg0_KlggHJK0LN9S-25" value="Product" style="swimlane;fontStyle=0;childLayout=stackLayout;horizontal=1;startSize=26;horizontalStack=0;resizeParent=1;resizeParentMax=0;resizeLast=0;collapsible=1;marginBottom=0;align=center;fontSize=14;" parent="1" vertex="1">
          <mxGeometry x="720" y="90" width="160" height="206" as="geometry" />
        </mxCell>
        <mxCell id="JXFhsg0_KlggHJK0LN9S-26" value="name" style="text;strokeColor=none;fillColor=none;spacingLeft=4;spacingRight=4;overflow=hidden;rotatable=0;points=[[0,0.5],[1,0.5]];portConstraint=eastwest;fontSize=12;whiteSpace=wrap;html=1;" parent="JXFhsg0_KlggHJK0LN9S-25" vertex="1">
          <mxGeometry y="26" width="160" height="30" as="geometry" />
        </mxCell>
        <mxCell id="JXFhsg0_KlggHJK0LN9S-27" value="description" style="text;strokeColor=none;fillColor=none;spacingLeft=4;spacingRight=4;overflow=hidden;rotatable=0;points=[[0,0.5],[1,0.5]];portConstraint=eastwest;fontSize=12;whiteSpace=wrap;html=1;" parent="JXFhsg0_KlggHJK0LN9S-25" vertex="1">
          <mxGeometry y="56" width="160" height="30" as="geometry" />
        </mxCell>
        <mxCell id="JXFhsg0_KlggHJK0LN9S-28" value="price" style="text;strokeColor=none;fillColor=none;spacingLeft=4;spacingRight=4;overflow=hidden;rotatable=0;points=[[0,0.5],[1,0.5]];portConstraint=eastwest;fontSize=12;whiteSpace=wrap;html=1;" parent="JXFhsg0_KlggHJK0LN9S-25" vertex="1">
          <mxGeometry y="86" width="160" height="30" as="geometry" />
        </mxCell>
        <mxCell id="oxq3xke3r_58K0VUfWZ9-1" value="stock" style="text;strokeColor=none;fillColor=none;spacingLeft=4;spacingRight=4;overflow=hidden;rotatable=0;points=[[0,0.5],[1,0.5]];portConstraint=eastwest;fontSize=12;whiteSpace=wrap;html=1;" parent="JXFhsg0_KlggHJK0LN9S-25" vertex="1">
          <mxGeometry y="116" width="160" height="30" as="geometry" />
        </mxCell>
        <mxCell id="oxq3xke3r_58K0VUfWZ9-2" value="status" style="text;strokeColor=none;fillColor=none;spacingLeft=4;spacingRight=4;overflow=hidden;rotatable=0;points=[[0,0.5],[1,0.5]];portConstraint=eastwest;fontSize=12;whiteSpace=wrap;html=1;" parent="JXFhsg0_KlggHJK0LN9S-25" vertex="1">
          <mxGeometry y="146" width="160" height="30" as="geometry" />
        </mxCell>
        <mxCell id="oxq3xke3r_58K0VUfWZ9-3" value="creationTime" style="text;strokeColor=none;fillColor=none;spacingLeft=4;spacingRight=4;overflow=hidden;rotatable=0;points=[[0,0.5],[1,0.5]];portConstraint=eastwest;fontSize=12;whiteSpace=wrap;html=1;" parent="JXFhsg0_KlggHJK0LN9S-25" vertex="1">
          <mxGeometry y="176" width="160" height="30" as="geometry" />
        </mxCell>
        <mxCell id="JXFhsg0_KlggHJK0LN9S-29" value="0..*" style="endArrow=open;html=1;endSize=12;startArrow=diamondThin;startSize=14;startFill=1;align=left;verticalAlign=bottom;rounded=0;" parent="1" source="JXFhsg0_KlggHJK0LN9S-16" target="JXFhsg0_KlggHJK0LN9S-25" edge="1">
          <mxGeometry x="0.7241" y="13" relative="1" as="geometry">
            <mxPoint x="580" y="350" as="sourcePoint" />
            <mxPoint x="740" y="350" as="targetPoint" />
            <mxPoint as="offset" />
          </mxGeometry>
        </mxCell>
        <mxCell id="oxq3xke3r_58K0VUfWZ9-4" value="Category" style="swimlane;fontStyle=0;childLayout=stackLayout;horizontal=1;startSize=26;horizontalStack=0;resizeParent=1;resizeParentMax=0;resizeLast=0;collapsible=1;marginBottom=0;align=center;fontSize=14;" parent="1" vertex="1">
          <mxGeometry x="1020" y="-40" width="160" height="56" as="geometry" />
        </mxCell>
        <mxCell id="oxq3xke3r_58K0VUfWZ9-5" value="name" style="text;strokeColor=none;fillColor=none;spacingLeft=4;spacingRight=4;overflow=hidden;rotatable=0;points=[[0,0.5],[1,0.5]];portConstraint=eastwest;fontSize=12;whiteSpace=wrap;html=1;" parent="oxq3xke3r_58K0VUfWZ9-4" vertex="1">
          <mxGeometry y="26" width="160" height="30" as="geometry" />
        </mxCell>
        <mxCell id="oxq3xke3r_58K0VUfWZ9-13" value="Characteristic" style="swimlane;fontStyle=0;childLayout=stackLayout;horizontal=1;startSize=26;horizontalStack=0;resizeParent=1;resizeParentMax=0;resizeLast=0;collapsible=1;marginBottom=0;align=center;fontSize=14;" parent="1" vertex="1">
          <mxGeometry x="1340" y="150" width="160" height="86" as="geometry" />
        </mxCell>
        <mxCell id="oxq3xke3r_58K0VUfWZ9-14" value="name" style="text;strokeColor=none;fillColor=none;spacingLeft=4;spacingRight=4;overflow=hidden;rotatable=0;points=[[0,0.5],[1,0.5]];portConstraint=eastwest;fontSize=12;whiteSpace=wrap;html=1;" parent="oxq3xke3r_58K0VUfWZ9-13" vertex="1">
          <mxGeometry y="26" width="160" height="30" as="geometry" />
        </mxCell>
        <mxCell id="oxq3xke3r_58K0VUfWZ9-33" value="type" style="text;strokeColor=none;fillColor=none;spacingLeft=4;spacingRight=4;overflow=hidden;rotatable=0;points=[[0,0.5],[1,0.5]];portConstraint=eastwest;fontSize=12;whiteSpace=wrap;html=1;" parent="oxq3xke3r_58K0VUfWZ9-13" vertex="1">
          <mxGeometry y="56" width="160" height="30" as="geometry" />
        </mxCell>
        <mxCell id="oxq3xke3r_58K0VUfWZ9-17" value="ProductCharacteristicText" style="swimlane;fontStyle=0;childLayout=stackLayout;horizontal=1;startSize=26;horizontalStack=0;resizeParent=1;resizeParentMax=0;resizeLast=0;collapsible=1;marginBottom=0;align=center;fontSize=14;" parent="1" vertex="1">
          <mxGeometry x="880" y="420" width="200" height="56" as="geometry" />
        </mxCell>
        <mxCell id="oxq3xke3r_58K0VUfWZ9-40" value="value" style="text;strokeColor=none;fillColor=none;spacingLeft=4;spacingRight=4;overflow=hidden;rotatable=0;points=[[0,0.5],[1,0.5]];portConstraint=eastwest;fontSize=12;whiteSpace=wrap;html=1;" parent="oxq3xke3r_58K0VUfWZ9-17" vertex="1">
          <mxGeometry y="26" width="200" height="30" as="geometry" />
        </mxCell>
        <mxCell id="oxq3xke3r_58K0VUfWZ9-21" value="ProductCharacteristicSelect" style="swimlane;fontStyle=0;childLayout=stackLayout;horizontal=1;startSize=26;horizontalStack=0;resizeParent=1;resizeParentMax=0;resizeLast=0;collapsible=1;marginBottom=0;align=center;fontSize=14;" parent="1" vertex="1">
          <mxGeometry x="1120" y="420" width="200" height="56" as="geometry" />
        </mxCell>
        <mxCell id="oxq3xke3r_58K0VUfWZ9-22" value="selectedOptions" style="text;strokeColor=none;fillColor=none;spacingLeft=4;spacingRight=4;overflow=hidden;rotatable=0;points=[[0,0.5],[1,0.5]];portConstraint=eastwest;fontSize=12;whiteSpace=wrap;html=1;" parent="oxq3xke3r_58K0VUfWZ9-21" vertex="1">
          <mxGeometry y="26" width="200" height="30" as="geometry" />
        </mxCell>
        <mxCell id="oxq3xke3r_58K0VUfWZ9-25" value="Extends" style="endArrow=block;endSize=16;endFill=0;html=1;rounded=0;" parent="1" source="oxq3xke3r_58K0VUfWZ9-17" target="oxq3xke3r_58K0VUfWZ9-34" edge="1">
          <mxGeometry width="160" relative="1" as="geometry">
            <mxPoint x="990" y="260" as="sourcePoint" />
            <mxPoint x="1150" y="260" as="targetPoint" />
          </mxGeometry>
        </mxCell>
        <mxCell id="oxq3xke3r_58K0VUfWZ9-26" value="Extends" style="endArrow=block;endSize=16;endFill=0;html=1;rounded=0;" parent="1" source="oxq3xke3r_58K0VUfWZ9-21" target="oxq3xke3r_58K0VUfWZ9-34" edge="1">
          <mxGeometry width="160" relative="1" as="geometry">
            <mxPoint x="980" y="290" as="sourcePoint" />
            <mxPoint x="1140" y="290" as="targetPoint" />
          </mxGeometry>
        </mxCell>
        <mxCell id="oxq3xke3r_58K0VUfWZ9-28" value="CharacteristicOption" style="swimlane;fontStyle=0;childLayout=stackLayout;horizontal=1;startSize=26;horizontalStack=0;resizeParent=1;resizeParentMax=0;resizeLast=0;collapsible=1;marginBottom=0;align=center;fontSize=14;" parent="1" vertex="1">
          <mxGeometry x="1450" y="420" width="160" height="56" as="geometry" />
        </mxCell>
        <mxCell id="oxq3xke3r_58K0VUfWZ9-29" value="value" style="text;strokeColor=none;fillColor=none;spacingLeft=4;spacingRight=4;overflow=hidden;rotatable=0;points=[[0,0.5],[1,0.5]];portConstraint=eastwest;fontSize=12;whiteSpace=wrap;html=1;" parent="oxq3xke3r_58K0VUfWZ9-28" vertex="1">
          <mxGeometry y="26" width="160" height="30" as="geometry" />
        </mxCell>
        <mxCell id="oxq3xke3r_58K0VUfWZ9-34" value="ProductCharacteristic" style="swimlane;fontStyle=0;childLayout=stackLayout;horizontal=1;startSize=26;horizontalStack=0;resizeParent=1;resizeParentMax=0;resizeLast=0;collapsible=1;marginBottom=0;align=center;fontSize=14;" parent="1" vertex="1">
          <mxGeometry x="1020" y="165" width="160" height="56" as="geometry" />
        </mxCell>
        <mxCell id="oxq3xke3r_58K0VUfWZ9-39" value="0..*" style="endArrow=open;html=1;endSize=12;startArrow=diamondThin;startSize=14;startFill=1;align=left;verticalAlign=bottom;rounded=0;" parent="1" source="JXFhsg0_KlggHJK0LN9S-25" target="oxq3xke3r_58K0VUfWZ9-34" edge="1">
          <mxGeometry x="0.4286" y="13" relative="1" as="geometry">
            <mxPoint x="740" y="410" as="sourcePoint" />
            <mxPoint x="900" y="410" as="targetPoint" />
            <mxPoint as="offset" />
          </mxGeometry>
        </mxCell>
        <mxCell id="oxq3xke3r_58K0VUfWZ9-45" value="0..*" style="endArrow=open;html=1;endSize=12;startArrow=diamondThin;startSize=14;startFill=1;align=left;verticalAlign=bottom;rounded=0;" parent="1" source="2pmIpfIuDPifejyRDsyX-1" target="oxq3xke3r_58K0VUfWZ9-28" edge="1">
          <mxGeometry x="0.5701" y="4" relative="1" as="geometry">
            <mxPoint x="1290" y="520" as="sourcePoint" />
            <mxPoint x="1500" y="330" as="targetPoint" />
            <mxPoint as="offset" />
          </mxGeometry>
        </mxCell>
        <mxCell id="2pmIpfIuDPifejyRDsyX-1" value="CharacterisitcSelect" style="swimlane;fontStyle=0;childLayout=stackLayout;horizontal=1;startSize=26;horizontalStack=0;resizeParent=1;resizeParentMax=0;resizeLast=0;collapsible=1;marginBottom=0;align=center;fontSize=14;" parent="1" vertex="1">
          <mxGeometry x="1450" y="300" width="160" height="56" as="geometry" />
        </mxCell>
        <mxCell id="2pmIpfIuDPifejyRDsyX-5" value="CharacterisitcText" style="swimlane;fontStyle=0;childLayout=stackLayout;horizontal=1;startSize=26;horizontalStack=0;resizeParent=1;resizeParentMax=0;resizeLast=0;collapsible=1;marginBottom=0;align=center;fontSize=14;" parent="1" vertex="1">
          <mxGeometry x="1260" y="300" width="160" height="56" as="geometry" />
        </mxCell>
        <mxCell id="2pmIpfIuDPifejyRDsyX-6" value="Extends" style="endArrow=block;endSize=16;endFill=0;html=1;rounded=0;" parent="1" source="oxq3xke3r_58K0VUfWZ9-13" target="2pmIpfIuDPifejyRDsyX-5" edge="1">
          <mxGeometry width="160" relative="1" as="geometry">
            <mxPoint x="830" y="740" as="sourcePoint" />
            <mxPoint x="990" y="740" as="targetPoint" />
          </mxGeometry>
        </mxCell>
        <mxCell id="2pmIpfIuDPifejyRDsyX-7" value="Extends" style="endArrow=block;endSize=16;endFill=0;html=1;rounded=0;" parent="1" source="oxq3xke3r_58K0VUfWZ9-13" target="2pmIpfIuDPifejyRDsyX-1" edge="1">
          <mxGeometry width="160" relative="1" as="geometry">
            <mxPoint x="1160" y="740" as="sourcePoint" />
            <mxPoint x="1320" y="740" as="targetPoint" />
          </mxGeometry>
        </mxCell>
        <mxCell id="2pmIpfIuDPifejyRDsyX-8" value="Use" style="endArrow=open;endSize=12;dashed=1;html=1;rounded=0;" parent="1" source="oxq3xke3r_58K0VUfWZ9-21" target="oxq3xke3r_58K0VUfWZ9-28" edge="1">
          <mxGeometry width="160" relative="1" as="geometry">
            <mxPoint x="1100" y="640" as="sourcePoint" />
            <mxPoint x="1260" y="640" as="targetPoint" />
          </mxGeometry>
        </mxCell>
        <mxCell id="2pmIpfIuDPifejyRDsyX-16" value="0..*" style="endArrow=open;html=1;endSize=12;startArrow=diamondThin;startSize=14;startFill=1;align=left;verticalAlign=bottom;rounded=0;" parent="1" source="oxq3xke3r_58K0VUfWZ9-4" target="oxq3xke3r_58K0VUfWZ9-13" edge="1">
          <mxGeometry x="0.5" relative="1" as="geometry">
            <mxPoint x="1370" y="-40" as="sourcePoint" />
            <mxPoint x="1530" y="-40" as="targetPoint" />
            <mxPoint as="offset" />
          </mxGeometry>
        </mxCell>
        <mxCell id="2pmIpfIuDPifejyRDsyX-21" value="" style="endArrow=none;html=1;rounded=0;" parent="1" source="JXFhsg0_KlggHJK0LN9S-25" target="oxq3xke3r_58K0VUfWZ9-4" edge="1">
          <mxGeometry relative="1" as="geometry">
            <mxPoint x="667" y="450" as="sourcePoint" />
            <mxPoint x="827" y="450" as="targetPoint" />
          </mxGeometry>
        </mxCell>
        <mxCell id="2pmIpfIuDPifejyRDsyX-22" value="parent" style="edgeLabel;resizable=0;html=1;align=left;verticalAlign=bottom;" parent="2pmIpfIuDPifejyRDsyX-21" connectable="0" vertex="1">
          <mxGeometry x="-1" relative="1" as="geometry">
            <mxPoint x="5" y="-15" as="offset" />
          </mxGeometry>
        </mxCell>
        <mxCell id="2pmIpfIuDPifejyRDsyX-23" value="child" style="edgeLabel;resizable=0;html=1;align=right;verticalAlign=bottom;" parent="2pmIpfIuDPifejyRDsyX-21" connectable="0" vertex="1">
          <mxGeometry x="1" relative="1" as="geometry">
            <mxPoint x="-6" y="28" as="offset" />
          </mxGeometry>
        </mxCell>
        <mxCell id="2pmIpfIuDPifejyRDsyX-24" value="" style="endArrow=none;html=1;rounded=0;" parent="1" source="oxq3xke3r_58K0VUfWZ9-34" target="oxq3xke3r_58K0VUfWZ9-13" edge="1">
          <mxGeometry relative="1" as="geometry">
            <mxPoint x="827" y="327.5" as="sourcePoint" />
            <mxPoint x="987" y="327.5" as="targetPoint" />
          </mxGeometry>
        </mxCell>
        <mxCell id="2pmIpfIuDPifejyRDsyX-25" value="parent" style="edgeLabel;resizable=0;html=1;align=left;verticalAlign=bottom;" parent="2pmIpfIuDPifejyRDsyX-24" connectable="0" vertex="1">
          <mxGeometry x="-1" relative="1" as="geometry">
            <mxPoint x="10" as="offset" />
          </mxGeometry>
        </mxCell>
        <mxCell id="2pmIpfIuDPifejyRDsyX-26" value="child" style="edgeLabel;resizable=0;html=1;align=right;verticalAlign=bottom;" parent="2pmIpfIuDPifejyRDsyX-24" connectable="0" vertex="1">
          <mxGeometry x="1" relative="1" as="geometry">
            <mxPoint x="-12" as="offset" />
          </mxGeometry>
        </mxCell>
        <mxCell id="wMVr9xgcOuaCIWJ6lZs0-1" value="" style="endArrow=block;endFill=1;html=1;edgeStyle=orthogonalEdgeStyle;align=left;verticalAlign=top;rounded=0;" parent="1" source="oxq3xke3r_58K0VUfWZ9-4" target="oxq3xke3r_58K0VUfWZ9-4" edge="1">
          <mxGeometry x="-1" relative="1" as="geometry">
            <mxPoint x="950" y="-12" as="sourcePoint" />
            <mxPoint x="1120" y="-70" as="targetPoint" />
            <Array as="points">
              <mxPoint x="990" y="-12" />
              <mxPoint x="990" y="-80" />
              <mxPoint x="1120" y="-80" />
            </Array>
          </mxGeometry>
        </mxCell>
        <mxCell id="wMVr9xgcOuaCIWJ6lZs0-6" value="0..1" style="edgeLabel;html=1;align=center;verticalAlign=middle;resizable=0;points=[];" parent="wMVr9xgcOuaCIWJ6lZs0-1" vertex="1" connectable="0">
          <mxGeometry x="0.5572" y="3" relative="1" as="geometry">
            <mxPoint x="-1" y="-7" as="offset" />
          </mxGeometry>
        </mxCell>
      </root>
    </mxGraphModel>
  </diagram>
</mxfile>
